<!-- Generator: Adobe Illustrator 19.0.1, SVG Export Plug-In . SVG Version: 6.00 Build 0)  -->
<!-- <?xml version="1.0" encoding="utf-8"?>
<svg version="1.1" id="Layer_1" xmlns="http://www.w3.org/2000/svg" xmlns:xlink="http://www.w3.org/1999/xlink" x="0px" y="0px"
	 width="178.5px" height="104px" viewBox="-870 489 178.5 104" style="enable-background:new -870 489 178.5 104;"
	 xml:space="preserve">
<style type="text/css">
	.st0{fill:#C1272D;}
	.st1{opacity:0.25;}
	.st2{fill:#3ED8D2;}
	.st3{opacity:0.25;}
</style>
<g>
	<g>
		<path class="st0" d="M-745.5,509.6c1.4-2,1.2-2.9,1.2-2.9s0.2-0.9-1.2-2.9s-15-13.6-15.7-14c-0.7-0.4-28.5-2.2-31.4,1.3
			s-2.6,15.6-2.6,15.6s-0.3,12.1,2.6,15.6s30.7,1.7,31.4,1.3C-760.5,523.2-746.9,511.6-745.5,509.6z"/>
		<path class="st1" d="M-745.5,509.6c1.4-2,1.2-2.9,1.2-2.9s0.2-0.9-1.2-2.9c-0.9-1.3-6.9-6.6-11.2-10.3c-2.1,3.9-3.4,8.4-3.4,13.2
			s1.2,9.3,3.4,13.2C-752.4,516.2-746.4,510.9-745.5,509.6z"/>
	</g>
</g>
<g>
	<path class="st0" d="M-849.4,490.3c-2-1.4-2.9-1.2-2.9-1.2s-0.9-0.2-2.9,1.2s-13.6,15-14,15.7c-0.4,0.7-2.2,28.5,1.3,31.4
		s15.6,2.6,15.6,2.6s12.1,0.3,15.6-2.6s1.7-30.7,1.3-31.4C-835.8,505.2-847.4,491.6-849.4,490.3z"/>
	<path class="st1" d="M-849.4,490.3c-2-1.4-2.9-1.2-2.9-1.2s-0.9-0.2-2.9,1.2c-1.3,0.9-6.6,6.9-10.3,11.2c3.9,2.1,8.4,3.4,13.2,3.4
		s9.3-1.2,13.2-3.4C-842.8,497.1-848.1,491.1-849.4,490.3z"/>
</g>
<g>
	<path class="st0" d="M-817.8,538.8c2,1.4,2.9,1.2,2.9,1.2s0.9,0.2,2.9-1.2s13.6-15,14-15.7c0.4-0.7,2.2-28.5-1.3-31.4
		s-15.6-2.6-15.6-2.6s-12.1-0.3-15.6,2.6s-1.7,30.7-1.3,31.4C-831.4,523.8-819.8,537.4-817.8,538.8z"/>
	<path class="st1" d="M-817.8,538.8c2,1.4,2.9,1.2,2.9,1.2s0.9,0.2,2.9-1.2c1.3-0.9,6.6-6.9,10.3-11.2c-3.9-2.1-8.4-3.4-13.2-3.4
		s-9.3,1.2-13.2,3.4C-824.4,531.9-819.1,537.9-817.8,538.8z"/>
</g>
<g>
	<path class="st0" d="M-694.1,491.3c-2.9-3.5-30.7-1.7-31.4-1.3c-0.7,0.4-14.3,12-15.7,14s-1.2,2.9-1.2,2.9s-0.2,0.9,1.2,2.9
		s15,13.6,15.7,14c0.7,0.4,28.5,2.2,31.4-1.3s2.6-15.6,2.6-15.6S-691.3,494.8-694.1,491.3z"/>
	<path class="st1" d="M-730,493.7c-4.3,3.7-10.3,9-11.2,10.3c-1.4,2-1.2,2.9-1.2,2.9s-0.2,0.9,1.2,2.9c0.9,1.3,6.9,6.6,11.2,10.3
		c2.1-3.9,3.4-8.4,3.4-13.2S-727.9,497.6-730,493.7z"/>
</g>
<g>
	<path class="st2" d="M-745.5,562.6c1.4-2,1.2-2.9,1.2-2.9s0.2-0.9-1.2-2.9s-15-13.6-15.7-14c-0.7-0.4-28.5-2.2-31.4,1.3
		s-2.6,15.6-2.6,15.6s-0.3,12.1,2.6,15.6s30.7,1.7,31.4,1.3C-760.5,576.2-746.9,564.6-745.5,562.6z"/>
	<path class="st3" d="M-745.5,562.6c1.4-2,1.2-2.9,1.2-2.9s0.2-0.9-1.2-2.9c-0.9-1.3-6.9-6.6-11.2-10.3c-2.1,3.9-3.4,8.4-3.4,13.2
		s1.2,9.3,3.4,13.2C-752.4,569.2-746.4,563.9-745.5,562.6z"/>
</g>
<g>
	<path class="st2" d="M-849.4,543.3c-2-1.4-2.9-1.2-2.9-1.2s-0.9-0.2-2.9,1.2s-13.6,15-14,15.7c-0.4,0.7-2.2,28.5,1.3,31.4
		s15.6,2.6,15.6,2.6s12.1,0.3,15.6-2.6s1.7-30.7,1.3-31.4C-835.8,558.2-847.4,544.6-849.4,543.3z"/>
	<path class="st3" d="M-849.4,543.3c-2-1.4-2.9-1.2-2.9-1.2s-0.9-0.2-2.9,1.2c-1.3,0.9-6.6,6.9-10.3,11.2c3.9,2.1,8.4,3.4,13.2,3.4
		s9.3-1.2,13.2-3.4C-842.8,550.1-848.1,544.1-849.4,543.3z"/>
</g>
<g>
	<path class="st2" d="M-817.8,591.8c2,1.4,2.9,1.2,2.9,1.2s0.9,0.2,2.9-1.2s13.6-15,14-15.7c0.4-0.7,2.2-28.5-1.3-31.4
		s-15.6-2.6-15.6-2.6s-12.1-0.3-15.6,2.6s-1.7,30.7-1.3,31.4C-831.4,576.8-819.8,590.4-817.8,591.8z"/>
	<path class="st3" d="M-817.8,591.8c2,1.4,2.9,1.2,2.9,1.2s0.9,0.2,2.9-1.2c1.3-0.9,6.6-6.9,10.3-11.2c-3.9-2.1-8.4-3.4-13.2-3.4
		s-9.3,1.2-13.2,3.4C-824.4,584.9-819.1,590.9-817.8,591.8z"/>
</g>
<g>
	<g>
		<path class="st2" d="M-694.1,544.2c-2.9-3.5-30.7-1.7-31.4-1.3c-0.7,0.4-14.3,12-15.7,14s-1.2,2.9-1.2,2.9s-0.2,0.9,1.2,2.9
			s15,13.6,15.7,14c0.7,0.4,28.5,2.2,31.4-1.3s2.6-15.6,2.6-15.6S-691.3,547.7-694.1,544.2z"/>
		<path class="st3" d="M-730,546.6c-4.3,3.7-10.3,9-11.2,10.3c-1.4,2-1.2,2.9-1.2,2.9s-0.2,0.9,1.2,2.9c0.9,1.3,6.9,6.6,11.2,10.3
			c2.1-3.9,3.4-8.4,3.4-13.2S-727.9,550.5-730,546.6z"/>
	</g>
</g>
</svg> -->
<svg width="179" height="104" viewBox="0 0 179 104" fill="none" xmlns="http://www.w3.org/2000/svg">
	<g >
	<path d="M75.5498 17.7186L75.5498 17.7186L75.5502 17.7L75.5498 17.6815L75.5498 17.6814L75.5498 17.6812L75.5497 17.6799L75.5496 17.6741L75.5491 17.6496L75.5472 17.5508C75.5458 17.4635 75.544 17.334 75.5428 17.1676C75.5403 16.8347 75.5399 16.3539 75.5484 15.7655C75.5654 14.5878 75.618 12.9839 75.76 11.2746C75.9022 9.56204 76.1326 7.76148 76.5007 6.18456C76.8747 4.5826 77.3685 3.31358 77.9776 2.57852C78.1789 2.33549 78.7234 2.02811 79.7515 1.74615C80.7345 1.47658 82.0156 1.26662 83.5095 1.10997C86.4933 0.797108 90.2296 0.706312 93.9187 0.737467C97.6035 0.768587 101.221 0.921136 103.96 1.09074C105.33 1.17556 106.475 1.26439 107.296 1.34395C107.708 1.38383 108.032 1.42075 108.259 1.45284C108.354 1.46628 108.426 1.478 108.477 1.48763C108.508 1.51022 108.553 1.5444 108.616 1.59364C108.748 1.69597 108.926 1.83797 109.145 2.01608C109.582 2.37173 110.172 2.8625 110.868 3.44867C112.26 4.62057 114.066 6.16759 115.894 7.76478C117.723 9.36248 119.57 11.0071 121.045 12.3749C121.783 13.0592 122.423 13.6704 122.921 14.1698C123.432 14.683 123.753 15.0404 123.886 15.2301C124.547 16.1745 124.802 16.8195 124.9 17.1909C124.948 17.376 124.958 17.4938 124.96 17.5484C124.96 17.5591 124.96 17.5675 124.96 17.5736L124.932 17.7L124.96 17.8264C124.96 17.8325 124.96 17.8409 124.96 17.8516C124.958 17.9062 124.948 18.024 124.9 18.2091C124.802 18.5805 124.547 19.2255 123.886 20.1699C123.753 20.3596 123.432 20.717 122.921 21.2302C122.423 21.7296 121.783 22.3408 121.045 23.0251C119.57 24.3929 117.723 26.0375 115.894 27.6352C114.066 29.2324 112.26 30.7794 110.868 31.9513C110.172 32.5375 109.582 33.0282 109.145 33.3839C108.926 33.562 108.748 33.704 108.616 33.8063C108.553 33.8556 108.508 33.8897 108.477 33.9123C108.426 33.922 108.354 33.9337 108.259 33.9471C108.032 33.9792 107.708 34.0161 107.296 34.056C106.475 34.1356 105.33 34.2244 103.96 34.3092C101.221 34.4788 97.6035 34.6314 93.9187 34.6625C90.2296 34.6937 86.4933 34.6029 83.5095 34.29C82.0156 34.1334 80.7345 33.9234 79.7515 33.6538C78.7234 33.3719 78.1789 33.0645 77.9776 32.8215C77.3685 32.0864 76.8747 30.8174 76.5007 29.2154C76.1326 27.6385 75.9022 25.838 75.76 24.1254C75.618 22.4161 75.5654 20.8122 75.5484 19.6345C75.5399 19.0461 75.5403 18.5653 75.5428 18.2324C75.544 18.066 75.5458 17.9366 75.5472 17.8492L75.5491 17.7504L75.5496 17.7259L75.5497 17.7201L75.5498 17.7188L75.5498 17.7186Z" fill="#3A3A3A" stroke="#2C2C2C" stroke-width="1.5"/>
	<path opacity="0.25" d="M124.5 20.6C125.9 18.6 125.7 17.7 125.7 17.7C125.7 17.7 125.9 16.8 124.5 14.8C123.6 13.5 117.6 8.2 113.3 4.5C111.2 8.4 109.9 12.9 109.9 17.7C109.9 22.5 111.1 27 113.3 30.9C117.6 27.2 123.6 21.9 124.5 20.6Z" fill="#9B9B9B"/>
	<path d="M20.1699 1.91437L20.1804 1.92176L20.1912 1.92878C20.3702 2.04513 20.7208 2.34869 21.2351 2.85135C21.7331 3.3381 22.3433 3.97003 23.0272 4.70129C24.3941 6.16295 26.0379 8.00282 27.6352 9.83092C29.2319 11.6584 30.7782 13.4697 31.9492 14.8727C32.535 15.5746 33.0247 16.1717 33.3791 16.6164C33.5566 16.8392 33.6972 17.02 33.7979 17.1548C33.8548 17.2311 33.8899 17.2809 33.9098 17.3095C33.9199 17.3611 33.9325 17.4372 33.9471 17.541C33.9792 17.7681 34.0161 18.0918 34.056 18.5035C34.1356 19.3249 34.2244 20.4704 34.3092 21.8401C34.4788 24.5787 34.6314 28.1965 34.6625 31.8813C34.6937 35.5704 34.6029 39.3068 34.29 42.2905C34.1334 43.7844 33.9234 45.0656 33.6539 46.0485C33.3719 47.0766 33.0645 47.6211 32.8215 47.8225C32.0864 48.4315 30.8174 48.9254 29.2155 49.2993C27.6385 49.6674 25.838 49.8979 24.1255 50.04C22.4161 50.182 20.8122 50.2346 19.6345 50.2516C19.0461 50.2601 18.5653 50.2597 18.2324 50.2572C18.066 50.256 17.9366 50.2542 17.8493 50.2527L17.7505 50.2509L17.7259 50.2504L17.7201 50.2502L17.7188 50.2502L17.7186 50.2502L17.7 50.2497L17.6814 50.2502L17.6812 50.2502L17.68 50.2502L17.6741 50.2504L17.6496 50.2509L17.5508 50.2527C17.4635 50.2542 17.3341 50.256 17.1676 50.2572C16.8347 50.2597 16.3539 50.2601 15.7655 50.2516C14.5878 50.2346 12.9839 50.182 11.2746 50.04C9.56203 49.8979 7.76148 49.6674 6.18455 49.2993C4.58258 48.9254 3.31356 48.4315 2.5785 47.8225C2.33548 47.6211 2.0281 47.0766 1.74613 46.0485C1.47657 45.0656 1.26661 43.7844 1.10996 42.2905C0.797102 39.3068 0.706309 35.5704 0.737469 31.8813C0.768592 28.1965 0.921145 24.5787 1.09075 21.8401C1.17558 20.4704 1.26441 19.3249 1.34397 18.5035C1.38385 18.0918 1.42077 17.7681 1.45285 17.541C1.46629 17.4459 1.47801 17.374 1.48764 17.323C1.51024 17.2924 1.54442 17.247 1.59365 17.1835C1.69599 17.0517 1.83799 16.8741 2.01609 16.6552C2.37175 16.2182 2.86252 15.6276 3.44869 14.9315C4.62058 13.5399 6.16761 11.7339 7.76479 9.90592C9.3625 8.07729 11.0071 6.23035 12.3749 4.75522C13.0592 4.01729 13.6704 3.37654 14.1698 2.87925C14.683 2.36828 15.0405 2.04712 15.2301 1.91437C16.1745 1.25331 16.8195 0.997996 17.1909 0.900266C17.376 0.851538 17.4938 0.84179 17.5484 0.840315C17.5591 0.840026 17.5675 0.840052 17.5736 0.840178L17.7 0.868266L17.8264 0.840177C17.8325 0.840052 17.8409 0.840026 17.8516 0.840315C17.9062 0.84179 18.024 0.851537 18.2091 0.900264C18.5805 0.997993 19.2255 1.25331 20.1699 1.91437Z" fill="#3A3A3A" stroke="#2C2C2C" stroke-width="1.5"/>
	<path opacity="0.25" d="M20.6 1.29995C18.6 -0.100052 17.7 0.0999667 17.7 0.0999667C17.7 0.0999667 16.8 -0.100052 14.8 1.29995C13.5 2.19995 8.2 8.19996 4.5 12.5C8.4 14.6 12.9 15.9 17.7 15.9C22.5 15.9 27 14.7 30.9 12.5C27.2 8.09996 21.9 2.09995 20.6 1.29995Z" fill="#9B9B9B"/>
	<path d="M55.2516 50.2596C55.2409 50.2599 55.2325 50.2599 55.2264 50.2598L55.1 50.2317L54.9736 50.2598C54.9675 50.2599 54.9591 50.2599 54.9484 50.2596C54.8938 50.2582 54.7761 50.2484 54.5909 50.1997C54.2195 50.102 53.5745 49.8466 52.6301 49.1856C52.4405 49.0528 52.083 48.7317 51.5699 48.2207C51.0705 47.7234 50.4592 47.0826 49.775 46.3447C48.4071 44.8696 46.7625 43.0226 45.1648 41.194C43.5676 39.366 42.0206 37.5601 40.8487 36.1684C40.2625 35.4724 39.7718 34.8818 39.4161 34.4447C39.238 34.2259 39.096 34.0483 38.9937 33.9164C38.9444 33.853 38.9103 33.8075 38.8877 33.777C38.878 33.7259 38.8663 33.654 38.8529 33.5589C38.8208 33.3318 38.7839 33.0082 38.744 32.5964C38.6644 31.775 38.5756 30.6295 38.4908 29.2599C38.3212 26.5213 38.1686 22.9035 38.1375 19.2187C38.1063 15.5295 38.1971 11.7932 38.51 8.80947C38.6666 7.31555 38.8766 6.03443 39.1462 5.05149C39.4281 4.02335 39.7355 3.47889 39.9785 3.27752C40.7136 2.66848 41.9826 2.17463 43.5846 1.80069C45.1615 1.43258 46.962 1.20213 48.6746 1.05993C50.3839 0.918004 51.9878 0.865386 53.1655 0.848362C53.7539 0.839858 54.2347 0.840252 54.5676 0.842755C54.734 0.844006 54.8634 0.845784 54.9508 0.847237L55.0496 0.849068L55.0741 0.8496L55.0799 0.849736L55.0812 0.849767L55.0814 0.849772L55.0814 0.849773L55.1 0.850233L55.1185 0.849773L55.1186 0.849772L55.1188 0.849767L55.1201 0.849736L55.1259 0.8496L55.1504 0.849068L55.2492 0.847237C55.3365 0.845784 55.466 0.844006 55.6324 0.842755C55.9653 0.840252 56.4461 0.839858 57.0345 0.848362C58.2122 0.865386 59.8161 0.918004 61.5254 1.05993C63.238 1.20213 65.0385 1.43258 66.6155 1.80069C68.2174 2.17463 69.4865 2.66848 70.2215 3.27752C70.4645 3.47889 70.7719 4.02335 71.0539 5.05149C71.3235 6.03443 71.5334 7.31555 71.6901 8.80947C72.0029 11.7932 72.0937 15.5295 72.0625 19.2187C72.0314 22.9035 71.8789 26.5213 71.7093 29.2599C71.6244 30.6295 71.5356 31.775 71.456 32.5964C71.4162 33.0082 71.3793 33.3318 71.3472 33.5589C71.3337 33.654 71.322 33.7259 71.3124 33.777C71.2898 33.8075 71.2556 33.853 71.2064 33.9164C71.104 34.0483 70.962 34.2259 70.7839 34.4447C70.4283 34.8818 69.9375 35.4724 69.3513 36.1684C68.1794 37.5601 66.6324 39.366 65.0352 41.194C63.4375 43.0226 61.7929 44.8696 60.4251 46.3447C59.7408 47.0826 59.1296 47.7234 58.6302 48.2207C58.117 48.7317 57.7596 49.0528 57.5699 49.1856C56.6255 49.8466 55.9805 50.1019 55.6091 50.1997C55.424 50.2484 55.3062 50.2582 55.2516 50.2596Z" fill="#3A3A3A" stroke="#2C2C2C" stroke-width="1.5"/>
	<path opacity="0.25" d="M52.2 49.8C54.2 51.2 55.1 51 55.1 51C55.1 51 56 51.2 58 49.8C59.3 48.9 64.6 42.9 68.3 38.6C64.4 36.5 59.9 35.2 55.1 35.2C50.3 35.2 45.8 36.4 41.9 38.6C45.6 42.9 50.9 48.9 52.2 49.8Z" fill="#9B9B9B"/>
	<path d="M128.34 18.0516C128.34 18.0409 128.34 18.0325 128.34 18.0264L128.368 17.9L128.34 17.7736C128.34 17.7675 128.34 17.7591 128.34 17.7484C128.342 17.6938 128.352 17.5761 128.4 17.3909C128.498 17.0195 128.753 16.3745 129.414 15.4301C129.547 15.2405 129.868 14.883 130.379 14.3698C130.877 13.8704 131.517 13.2592 132.255 12.575C133.73 11.2071 135.577 9.56251 137.406 7.9648C139.234 6.36762 141.04 4.8206 142.432 3.6487C143.128 3.06253 143.718 2.57176 144.155 2.2161C144.374 2.038 144.552 1.896 144.684 1.79367C144.747 1.74443 144.792 1.71025 144.823 1.68765C144.874 1.67802 144.946 1.66631 145.041 1.65287C145.268 1.62078 145.592 1.58386 146.004 1.54398C146.825 1.46442 147.97 1.37559 149.34 1.29077C152.079 1.12116 155.696 0.968604 159.381 0.937481C163.07 0.906321 166.807 0.997114 169.791 1.30998C171.284 1.46662 172.566 1.67658 173.549 1.94615C174.571 2.22645 175.115 2.53187 175.319 2.77421C175.906 3.512 176.388 4.78236 176.757 6.38255C177.121 7.96158 177.354 9.76386 177.503 11.4772C177.651 13.1875 177.713 14.7923 177.738 15.9705C177.75 16.5591 177.753 17.0401 177.753 17.3732C177.753 17.5398 177.752 17.6693 177.752 17.7567L177.751 17.8556L177.75 17.8802L177.75 17.8861L177.75 17.8874L177.75 17.8876L177.75 17.9031L177.75 17.9186L177.75 17.9188L177.75 17.9201L177.75 17.9259L177.751 17.9504L177.753 18.0492C177.754 18.1366 177.756 18.266 177.757 18.4324C177.76 18.7653 177.76 19.2461 177.752 19.8345C177.735 21.0122 177.682 22.6161 177.54 24.3255C177.398 26.038 177.167 27.8385 176.799 29.4155C176.425 31.0174 175.932 32.2864 175.322 33.0215C175.121 33.2645 174.577 33.5719 173.549 33.8539C172.566 34.1234 171.284 34.3334 169.791 34.49C166.807 34.8029 163.07 34.8937 159.381 34.8625C155.696 34.8314 152.079 34.6789 149.34 34.5093C147.97 34.4244 146.825 34.3356 146.004 34.256C145.592 34.2162 145.268 34.1792 145.041 34.1471C144.946 34.1337 144.874 34.122 144.823 34.1124C144.792 34.0898 144.747 34.0556 144.684 34.0064C144.552 33.904 144.374 33.762 144.155 33.5839C143.718 33.2283 143.128 32.7375 142.432 32.1513C141.04 30.9794 139.234 29.4324 137.406 27.8352C135.577 26.2375 133.73 24.5929 132.255 23.2251C131.517 22.5408 130.877 21.9296 130.379 21.4302C129.868 20.917 129.547 20.5595 129.414 20.3699C128.753 19.4255 128.498 18.7805 128.4 18.4091C128.352 18.224 128.342 18.1062 128.34 18.0516Z" fill="#3A3A3A" stroke="#2C2C2C" stroke-width="1.5"/>
	<path opacity="0.25" d="M140 4.70001C135.7 8.40001 129.7 13.7 128.8 15C127.4 17 127.6 17.9 127.6 17.9C127.6 17.9 127.4 18.8 128.8 20.8C129.7 22.1 135.7 27.4 140 31.1C142.1 27.2 143.4 22.7 143.4 17.9C143.4 13.1 142.1 8.60001 140 4.70001Z" fill="#9B9B9B"/>
	<path d="M124.5 73.6C125.9 71.6 125.7 70.7 125.7 70.7C125.7 70.7 125.9 69.8 124.5 67.8C123.1 65.8 109.5 54.2 108.8 53.8C108.1 53.4 80.3 51.6 77.4 55.1C74.5 58.6 74.8 70.7 74.8 70.7C74.8 70.7 74.5 82.8 77.4 86.3C80.3 89.8 108.1 88 108.8 87.6C109.5 87.2 123.1 75.6 124.5 73.6Z" fill="#3ED8D2"/>
	<path d="M75.5498 70.7186L75.5498 70.7186L75.5502 70.7L75.5498 70.6815L75.5498 70.6814L75.5498 70.6812L75.5497 70.68L75.5496 70.6741L75.5491 70.6496L75.5472 70.5508C75.5458 70.4635 75.544 70.3341 75.5428 70.1676C75.5403 69.8347 75.5399 69.3539 75.5484 68.7655C75.5654 67.5878 75.618 65.9839 75.76 64.2746C75.9022 62.562 76.1326 60.7615 76.5007 59.1845C76.8747 57.5826 77.3685 56.3136 77.9776 55.5785C78.1789 55.3355 78.7234 55.0281 79.7515 54.7461C80.7345 54.4766 82.0156 54.2666 83.5095 54.11C86.4933 53.7971 90.2296 53.7063 93.9187 53.7375C97.6035 53.7686 101.221 53.9211 103.96 54.0908C105.33 54.1756 106.475 54.2644 107.296 54.344C107.708 54.3839 108.032 54.4208 108.259 54.4529C108.354 54.4663 108.426 54.478 108.477 54.4876C108.508 54.5102 108.553 54.5444 108.616 54.5937C108.748 54.696 108.926 54.838 109.145 55.0161C109.582 55.3717 110.172 55.8625 110.868 56.4487C112.26 57.6206 114.066 59.1676 115.894 60.7648C117.723 62.3625 119.57 64.0071 121.045 65.3749C121.783 66.0592 122.423 66.6704 122.921 67.1698C123.432 67.683 123.753 68.0405 123.886 68.2301C124.547 69.1745 124.802 69.8195 124.9 70.1909C124.948 70.3761 124.958 70.4938 124.96 70.5484C124.96 70.5591 124.96 70.5675 124.96 70.5737L124.932 70.7L124.96 70.8264C124.96 70.8325 124.96 70.8409 124.96 70.8516C124.958 70.9062 124.948 71.024 124.9 71.2091C124.802 71.5805 124.547 72.2255 123.886 73.1699C123.753 73.3595 123.432 73.717 122.921 74.2302C122.423 74.7296 121.783 75.3408 121.045 76.025C119.57 77.3929 117.723 79.0375 115.894 80.6352C114.066 82.2324 112.26 83.7794 110.868 84.9513C110.172 85.5375 109.582 86.0282 109.145 86.3839C108.926 86.562 108.748 86.704 108.616 86.8063C108.553 86.8556 108.508 86.8898 108.477 86.9123C108.426 86.922 108.354 86.9337 108.259 86.9471C108.032 86.9792 107.708 87.0161 107.296 87.056C106.475 87.1356 105.33 87.2244 103.96 87.3092C101.221 87.4788 97.6035 87.6314 93.9187 87.6625C90.2296 87.6937 86.4933 87.6029 83.5095 87.29C82.0156 87.1334 80.7345 86.9234 79.7515 86.6539C78.7234 86.3719 78.1789 86.0645 77.9776 85.8215C77.3685 85.0864 76.8747 83.8174 76.5007 82.2155C76.1326 80.6385 75.9022 78.838 75.76 77.1255C75.618 75.4161 75.5654 73.8122 75.5484 72.6345C75.5399 72.0461 75.5403 71.5653 75.5428 71.2324C75.544 71.066 75.5458 70.9366 75.5472 70.8492L75.5491 70.7505L75.5496 70.7259L75.5497 70.7201L75.5498 70.7188L75.5498 70.7186Z" stroke="#222222" stroke-opacity="0.5" stroke-width="1.5"/>
	<path opacity="0.25" d="M124.5 73.6C125.9 71.6 125.7 70.7 125.7 70.7C125.7 70.7 125.9 69.8 124.5 67.8C123.6 66.5 117.6 61.2 113.3 57.5C111.2 61.4 109.9 65.9 109.9 70.7C109.9 75.5 111.1 80 113.3 83.9C117.6 80.2 123.6 74.9 124.5 73.6Z" fill="black"/>
	<path d="M20.6 54.3C18.6 52.9 17.7 53.1 17.7 53.1C17.7 53.1 16.8 52.9 14.8 54.3C12.8 55.7 1.2 69.3 0.800002 70C0.400002 70.7 -1.40001 98.5 2.09999 101.4C5.59999 104.3 17.7 104 17.7 104C17.7 104 29.8 104.3 33.3 101.4C36.8 98.5 35 70.7 34.6 70C34.2 69.2 22.6 55.6 20.6 54.3Z" fill="#3ED8D2"/>
	<path d="M20.1699 54.9144L20.1804 54.9218L20.1912 54.9288C20.3702 55.0452 20.7208 55.3487 21.2351 55.8514C21.7331 56.3381 22.3433 56.9701 23.0272 57.7013C24.3941 59.163 26.0379 61.0028 27.6352 62.8309C29.2319 64.6585 30.7782 66.4698 31.9492 67.8728C32.535 68.5746 33.0247 69.1717 33.3791 69.6164C33.5566 69.8392 33.6972 70.02 33.7979 70.1548C33.8548 70.2311 33.8899 70.2809 33.9098 70.3095C33.9199 70.3611 33.9325 70.4373 33.9471 70.541C33.9792 70.7682 34.0161 71.0918 34.056 71.5035C34.1356 72.325 34.2244 73.4705 34.3092 74.8401C34.4788 77.5787 34.6314 81.1965 34.6625 84.8813C34.6937 88.5705 34.6029 92.3068 34.29 95.2905C34.1334 96.7845 33.9234 98.0656 33.6539 99.0485C33.3719 100.077 33.0645 100.621 32.8215 100.822C32.0864 101.432 30.8174 101.925 29.2155 102.299C27.6385 102.667 25.838 102.898 24.1255 103.04C22.4161 103.182 20.8122 103.235 19.6345 103.252C19.0461 103.26 18.5653 103.26 18.2324 103.257C18.066 103.256 17.9366 103.254 17.8493 103.253L17.7505 103.251L17.7259 103.25L17.7201 103.25L17.7188 103.25L17.7186 103.25L17.7 103.25L17.6814 103.25L17.6812 103.25L17.68 103.25L17.6741 103.25L17.6496 103.251L17.5508 103.253C17.4635 103.254 17.3341 103.256 17.1676 103.257C16.8347 103.26 16.3539 103.26 15.7655 103.252C14.5878 103.235 12.9839 103.182 11.2746 103.04C9.56203 102.898 7.76148 102.667 6.18455 102.299C4.58258 101.925 3.31356 101.432 2.5785 100.822C2.33548 100.621 2.0281 100.077 1.74613 99.0485C1.47657 98.0656 1.26661 96.7845 1.10996 95.2905C0.797102 92.3068 0.706309 88.5705 0.737469 84.8813C0.768592 81.1965 0.921145 77.5787 1.09075 74.8401C1.17558 73.4705 1.26441 72.325 1.34397 71.5035C1.38385 71.0918 1.42077 70.7682 1.45285 70.541C1.46629 70.4459 1.47801 70.3741 1.48764 70.323C1.51024 70.2924 1.54442 70.247 1.59365 70.1835C1.69599 70.0517 1.83799 69.8741 2.01609 69.6552C2.37175 69.2182 2.86252 68.6276 3.44869 67.9315C4.62058 66.5399 6.16761 64.734 7.76479 62.9059C9.3625 61.0773 11.0071 59.2304 12.3749 57.7552C13.0592 57.0173 13.6704 56.3766 14.1698 55.8793C14.683 55.3683 15.0405 55.0472 15.2301 54.9144C16.1745 54.2533 16.8195 53.998 17.1909 53.9003C17.3761 53.8515 17.4938 53.8418 17.5484 53.8403C17.5591 53.84 17.5675 53.8401 17.5737 53.8402L17.7 53.8683L17.8264 53.8402C17.8325 53.8401 17.8409 53.84 17.8516 53.8403C17.9062 53.8418 18.024 53.8515 18.2091 53.9003C18.5805 53.998 19.2255 54.2533 20.1699 54.9144Z" stroke="#222222" stroke-opacity="0.5" stroke-width="1.5"/>
	<path opacity="0.25" d="M20.6 54.3C18.6 52.9 17.7 53.1 17.7 53.1C17.7 53.1 16.8 52.9 14.8 54.3C13.5 55.2 8.2 61.2 4.5 65.5C8.4 67.6 12.9 68.9 17.7 68.9C22.5 68.9 27 67.7 30.9 65.5C27.2 61.1 21.9 55.1 20.6 54.3Z" fill="black"/>
	<path d="M52.2 102.8C54.2 104.2 55.1 104 55.1 104C55.1 104 56 104.2 58 102.8C60 101.4 71.6 87.8 72 87.1C72.4 86.4 74.2 58.6 70.7 55.7C67.2 52.8 55.1 53.1 55.1 53.1C55.1 53.1 43 52.8 39.5 55.7C36 58.6 37.8 86.4 38.2 87.1C38.6 87.8 50.2 101.4 52.2 102.8Z" fill="#3ED8D2"/>
	<path d="M55.2516 103.26C55.2409 103.26 55.2325 103.26 55.2264 103.26L55.1 103.232L54.9736 103.26C54.9675 103.26 54.9591 103.26 54.9484 103.26C54.8938 103.258 54.7761 103.248 54.5909 103.2C54.2195 103.102 53.5745 102.847 52.6301 102.186C52.4405 102.053 52.083 101.732 51.5699 101.221C51.0705 100.723 50.4592 100.083 49.775 99.3447C48.4071 97.8696 46.7625 96.0227 45.1648 94.194C43.5676 92.366 42.0206 90.5601 40.8487 89.1685C40.2625 88.4724 39.7718 87.8818 39.4161 87.4448C39.238 87.2259 39.096 87.0483 38.9937 86.9164C38.9444 86.853 38.9103 86.8075 38.8877 86.777C38.878 86.7259 38.8663 86.654 38.8529 86.5589C38.8208 86.3318 38.7839 86.0082 38.744 85.5964C38.6644 84.775 38.5756 83.6295 38.4908 82.2599C38.3212 79.5213 38.1686 75.9035 38.1375 72.2187C38.1063 68.5296 38.1971 64.7933 38.51 61.8095C38.6666 60.3156 38.8766 59.0345 39.1462 58.0515C39.4281 57.0234 39.7355 56.4789 39.9785 56.2776C40.7136 55.6685 41.9826 55.1747 43.5846 54.8007C45.1615 54.4326 46.962 54.2021 48.6746 54.0599C50.3839 53.918 51.9878 53.8654 53.1655 53.8484C53.7539 53.8399 54.2347 53.8403 54.5676 53.8428C54.734 53.844 54.8634 53.8458 54.9508 53.8472L55.0496 53.8491L55.0741 53.8496L55.0799 53.8497L55.0812 53.8498L55.0814 53.8498L55.0814 53.8498L55.1 53.8502L55.1185 53.8498L55.1186 53.8498L55.1188 53.8498L55.1201 53.8497L55.1259 53.8496L55.1504 53.8491L55.2492 53.8472C55.3365 53.8458 55.4659 53.844 55.6324 53.8428C55.9653 53.8403 56.4461 53.8399 57.0345 53.8484C58.2122 53.8654 59.8161 53.918 61.5254 54.0599C63.238 54.2021 65.0385 54.4326 66.6155 54.8007C68.2174 55.1747 69.4865 55.6685 70.2215 56.2776C70.4645 56.4789 70.7719 57.0234 71.0539 58.0515C71.3235 59.0345 71.5334 60.3156 71.6901 61.8095C72.0029 64.7933 72.0937 68.5296 72.0625 72.2187C72.0314 75.9035 71.8789 79.5213 71.7093 82.2599C71.6244 83.6295 71.5356 84.775 71.456 85.5964C71.4162 86.0082 71.3793 86.3318 71.3472 86.5589C71.3337 86.654 71.322 86.7259 71.3124 86.777C71.2898 86.8075 71.2556 86.853 71.2064 86.9164C71.104 87.0483 70.962 87.2259 70.7839 87.4448C70.4283 87.8818 69.9375 88.4724 69.3513 89.1685C68.1794 90.5601 66.6324 92.366 65.0352 94.194C63.4375 96.0227 61.7929 97.8696 60.4251 99.3447C59.7408 100.083 59.1296 100.723 58.6302 101.221C58.117 101.732 57.7596 102.053 57.5699 102.186C56.6255 102.847 55.9805 103.102 55.6091 103.2C55.424 103.248 55.3062 103.258 55.2516 103.26Z" stroke="#222222" stroke-opacity="0.5" stroke-width="1.5"/>
	<path opacity="0.25" d="M52.2 102.8C54.2 104.2 55.1 104 55.1 104C55.1 104 56 104.2 58 102.8C59.3 101.9 64.6 95.9 68.3 91.6C64.4 89.5 59.9 88.2 55.1 88.2C50.3 88.2 45.8 89.4 41.9 91.6C45.6 95.9 50.9 101.9 52.2 102.8Z" fill="black"/>
	<path d="M175.9 55.2C173 51.7 145.2 53.5 144.5 53.9C143.8 54.3 130.2 65.9 128.8 67.9C127.4 69.9 127.6 70.8 127.6 70.8C127.6 70.8 127.4 71.7 128.8 73.7C130.2 75.7 143.8 87.3 144.5 87.7C145.2 88.1 173 89.9 175.9 86.4C178.8 82.9 178.5 70.8 178.5 70.8C178.5 70.8 178.7 58.7 175.9 55.2Z" fill="#3ED8D2"/>
	<path d="M128.34 70.9516C128.34 70.9409 128.34 70.9325 128.34 70.9264L128.368 70.8L128.34 70.6736C128.34 70.6675 128.34 70.6591 128.34 70.6484C128.342 70.5938 128.352 70.4761 128.4 70.2909C128.498 69.9195 128.753 69.2745 129.414 68.3301C129.547 68.1405 129.868 67.783 130.379 67.2699C130.877 66.7705 131.517 66.1593 132.255 65.475C133.73 64.1071 135.577 62.4625 137.406 60.8648C139.234 59.2676 141.04 57.7206 142.432 56.5487C143.128 55.9626 143.718 55.4718 144.155 55.1161C144.374 54.938 144.552 54.796 144.684 54.6937C144.747 54.6445 144.792 54.6103 144.823 54.5877C144.874 54.578 144.946 54.5663 145.041 54.5529C145.268 54.5208 145.592 54.4839 146.004 54.444C146.825 54.3644 147.97 54.2756 149.34 54.1908C152.079 54.0212 155.696 53.8686 159.381 53.8375C163.07 53.8063 166.807 53.8971 169.791 54.21C171.284 54.3666 172.566 54.5766 173.549 54.8462C174.571 55.1265 175.115 55.4319 175.319 55.6742C175.906 56.412 176.388 57.6824 176.757 59.2826C177.121 60.8616 177.354 62.6639 177.503 64.3773C177.651 66.0875 177.713 67.6923 177.738 68.8705C177.75 69.4591 177.753 69.9401 177.753 70.2732C177.753 70.4398 177.752 70.5693 177.752 70.6567L177.751 70.7556L177.75 70.7802L177.75 70.7861L177.75 70.7874L177.75 70.7876L177.75 70.8031L177.75 70.8186L177.75 70.8188L177.75 70.8201L177.75 70.8259L177.751 70.8504L177.753 70.9492C177.754 71.0366 177.756 71.166 177.757 71.3324C177.76 71.6653 177.76 72.1461 177.752 72.7345C177.735 73.9122 177.682 75.5161 177.54 77.2255C177.398 78.938 177.167 80.7386 176.799 82.3155C176.425 83.9174 175.932 85.1865 175.322 85.9215C175.121 86.1646 174.577 86.4719 173.549 86.7539C172.566 87.0235 171.284 87.2334 169.791 87.3901C166.807 87.7029 163.07 87.7937 159.381 87.7626C155.696 87.7314 152.079 87.5789 149.34 87.4093C147.97 87.3245 146.825 87.2356 146.004 87.1561C145.592 87.1162 145.268 87.0793 145.041 87.0472C144.946 87.0337 144.874 87.022 144.823 87.0124C144.792 86.9898 144.747 86.9556 144.684 86.9064C144.552 86.804 144.374 86.662 144.155 86.4839C143.718 86.1283 143.128 85.6375 142.432 85.0513C141.04 83.8794 139.234 82.3324 137.406 80.7352C135.577 79.1375 133.73 77.493 132.255 76.1251C131.517 75.4408 130.877 74.8296 130.379 74.3302C129.868 73.8171 129.547 73.4596 129.414 73.2699C128.753 72.3256 128.498 71.6805 128.4 71.3091C128.352 71.124 128.342 71.0062 128.34 70.9516Z" stroke="#222222" stroke-opacity="0.5" stroke-width="1.5"/>
	<path opacity="0.25" d="M140 57.6C135.7 61.3 129.7 66.6 128.8 67.9C127.4 69.9 127.6 70.8 127.6 70.8C127.6 70.8 127.4 71.7 128.8 73.7C129.7 75 135.7 80.3 140 84C142.1 80.1 143.4 75.6 143.4 70.8C143.4 66 142.1 61.5 140 57.6Z" fill="black"/>
	</g>
</svg>
	