<!-- Generator: Adobe Illustrator 19.0.1, SVG Export Plug-In . SVG Version: 6.00 Build 0)  -->
<!-- <?xml version="1.0" encoding="utf-8"?>
<svg version="1.1" id="Layer_1" xmlns="http://www.w3.org/2000/svg" xmlns:xlink="http://www.w3.org/1999/xlink" x="0px" y="0px"
	 width="224px" height="112.3px" viewBox="-847 484.7 224 112.3" style="enable-background:new -847 484.7 224 112.3;"
	 xml:space="preserve">
<style type="text/css">
	.st0{fill:#2C2C2C;}
	.st1{fill:#222222;}
	.st2{fill:#7CB2E8;}
	.st3{fill:#FF6666;}
	.st4{fill:#FF69F8;}
	.st5{fill:#40E2A0;}
	.st6{fill:#D3D3D3;}
	.st7{fill:#DDDDDD;}
	.st8{fill:#834D17;}
	.st9{fill:#009999;}
	.st10{fill:#009607;}
	.st11{fill:#BF1D5F;}
</style>
<g>
	<g>
		<path class="st0" d="M-819.7,538.3c-14.5,0-26.3-11.8-26.3-26.3s11.8-26.3,26.3-26.3s26.3,11.8,26.3,26.3
			S-805.2,538.3-819.7,538.3z"/>
		<path class="st1" d="M-819.7,486.7c13.9,0,25.3,11.3,25.3,25.3c0,13.9-11.3,25.3-25.3,25.3S-845,525.9-845,512
			C-845,498.1-833.6,486.7-819.7,486.7 M-819.7,484.7c-15,0-27.3,12.2-27.3,27.3c0,15,12.2,27.3,27.3,27.3s27.3-12.2,27.3-27.3
			C-792.5,497-804.7,484.7-819.7,484.7L-819.7,484.7z"/>
	</g>
	<polygon class="st2" points="-805.3,499.6 -807.3,497.6 -819.7,510 -832.1,497.6 -834.1,499.6 -821.7,512 -834.1,524.4 
		-832.1,526.4 -819.7,514 -807.3,526.4 -805.3,524.4 -817.7,512 	"/>
</g>
<g>
	<g>
		<path class="st0" d="M-763.2,538.2c-14.5,0-26.3-11.8-26.3-26.3c0-14.5,11.8-26.3,26.3-26.3S-737,497.5-737,512
			C-737,526.5-748.7,538.2-763.2,538.2z"/>
		<path class="st1" d="M-763.2,486.8c13.9,0,25.3,11.3,25.3,25.3s-11.3,25.3-25.3,25.3s-25.3-11.3-25.3-25.3
			S-777.1,486.8-763.2,486.8 M-763.2,484.8c-15,0-27.3,12.2-27.3,27.3s12.2,27.3,27.3,27.3S-736,527-736,512
			S-748.2,484.8-763.2,484.8L-763.2,484.8z"/>
	</g>
	<path class="st3" d="M-763.2,493.1c-10.4,0-18.9,8.5-18.9,18.9c0,10.4,8.5,18.9,18.9,18.9s18.9-8.5,18.9-18.9
		C-744.3,501.6-752.8,493.1-763.2,493.1z M-763.2,528c-8.9,0-16-7.2-16-16c0-8.9,7.2-16,16-16s16,7.2,16,16
		C-747.2,520.9-754.3,528-763.2,528z"/>
</g>
<g>
	<g>
		<path class="st0" d="M-706.7,538.8c-14.5,0-26.3-11.8-26.3-26.3s11.8-26.3,26.3-26.3s26.3,11.8,26.3,26.3
			S-692.2,538.8-706.7,538.8z"/>
		<path class="st1" d="M-706.7,487.4c13.9,0,25.3,11.3,25.3,25.3c0,13.9-11.3,25.3-25.3,25.3s-25.3-11.3-25.3-25.3
			C-732,498.7-720.6,487.4-706.7,487.4 M-706.7,485.4c-15,0-27.3,12.2-27.3,27.3c0,15,12.2,27.3,27.3,27.3s27.3-12.2,27.3-27.3
			C-679.5,497.6-691.7,485.4-706.7,485.4L-706.7,485.4z"/>
	</g>
	<path class="st4" d="M-695.2,498.2h-23h-2.8v2.8v23v2.8h2.8h23h2.8v-2.8v-23v-2.8H-695.2z M-695.2,524.1h-23v-23h23V524.1z"/>
</g>
<g>
	<g>
		<g>
			<path class="st0" d="M-650.2,539.5c-14.5,0-26.3-11.8-26.3-26.3s11.8-26.3,26.3-26.3s26.3,11.8,26.3,26.3
				S-635.7,539.5-650.2,539.5z"/>
			<path class="st1" d="M-650.2,488c13.9,0,25.3,11.3,25.3,25.3s-11.3,25.3-25.3,25.3s-25.3-11.3-25.3-25.3S-664.1,488-650.2,488
				 M-650.2,486c-15,0-27.3,12.2-27.3,27.3s12.2,27.3,27.3,27.3s27.3-12.2,27.3-27.3S-635.2,486-650.2,486L-650.2,486z"/>
		</g>
		<path class="st5" d="M-634.2,521.3l-16-27.6l-16,27.6l-1.6,2.8l3.3,0l14.3,0l14.3,0l3.3,0L-634.2,521.3z M-650.2,521.3l-12.7,0
			l12.7-21.9l12.7,21.9L-650.2,521.3z"/>
	</g>
</g>
<g>
	<g>
		<path class="st6" d="M-819.7,596.1c-14.5,0-26.3-11.8-26.3-26.3s11.8-26.3,26.3-26.3s26.3,11.8,26.3,26.3
			S-805.2,596.1-819.7,596.1z"/>
		<path class="st7" d="M-819.7,544.5c13.9,0,25.3,11.3,25.3,25.3s-11.3,25.3-25.3,25.3s-25.3-11.3-25.3-25.3
			S-833.6,544.5-819.7,544.5 M-819.7,542.5c-15,0-27.3,12.2-27.3,27.3s12.2,27.3,27.3,27.3s27.3-12.2,27.3-27.3
			S-804.7,542.5-819.7,542.5L-819.7,542.5z"/>
	</g>
	<polygon class="st8" points="-805.3,557.4 -807.3,555.4 -819.7,567.8 -832.1,555.4 -834.1,557.4 -821.7,569.8 -834.1,582.2 
		-832.1,584.2 -819.7,571.8 -807.3,584.2 -805.3,582.2 -817.7,569.8 	"/>
</g>
<g>
	<g>
		<path class="st6" d="M-763.2,595.9c-14.5,0-26.3-11.8-26.3-26.3s11.8-26.3,26.3-26.3s26.3,11.8,26.3,26.3
			S-748.7,595.9-763.2,595.9z"/>
		<path class="st7" d="M-763.2,544.5c13.9,0,25.3,11.3,25.3,25.3s-11.3,25.3-25.3,25.3s-25.3-11.3-25.3-25.3
			S-777.1,544.5-763.2,544.5 M-763.2,542.5c-15,0-27.3,12.2-27.3,27.3s12.2,27.3,27.3,27.3s27.3-12.2,27.3-27.3
			S-748.2,542.5-763.2,542.5L-763.2,542.5z"/>
	</g>
	<path class="st9" d="M-763.2,550.8c-10.4,0-18.9,8.5-18.9,18.9c0,10.4,8.5,18.9,18.9,18.9s18.9-8.5,18.9-18.9
		C-744.3,559.3-752.8,550.8-763.2,550.8z M-763.2,585.7c-8.9,0-16-7.2-16-16c0-8.9,7.2-16,16-16s16,7.2,16,16
		C-747.2,578.6-754.3,585.7-763.2,585.7z"/>
</g>
<g>
	<g>
		<path class="st6" d="M-706.7,595.9c-14.5,0-26.3-11.8-26.3-26.3s11.8-26.3,26.3-26.3s26.3,11.8,26.3,26.3
			S-692.2,595.9-706.7,595.9z"/>
		<path class="st7" d="M-706.7,544.5c13.9,0,25.3,11.3,25.3,25.3s-11.3,25.3-25.3,25.3s-25.3-11.3-25.3-25.3
			S-720.6,544.5-706.7,544.5 M-706.7,542.5c-15,0-27.3,12.2-27.3,27.3s12.2,27.3,27.3,27.3s27.3-12.2,27.3-27.3
			S-691.7,542.5-706.7,542.5L-706.7,542.5z"/>
	</g>
	<path class="st10" d="M-695.2,555.3h-23h-2.8v2.8v23v2.8h2.8h23h2.8v-2.8v-23v-2.8H-695.2z M-695.2,581.2h-23v-23h23V581.2z"/>
</g>
<g>
	<g>
		<g>
			<g>
				<path class="st6" d="M-650.2,596c-14.5,0-26.3-11.8-26.3-26.3s11.8-26.3,26.3-26.3s26.3,11.8,26.3,26.3S-635.7,596-650.2,596z"
					/>
				<path class="st7" d="M-650.2,544.5c13.9,0,25.3,11.3,25.3,25.3s-11.3,25.3-25.3,25.3s-25.3-11.3-25.3-25.3
					S-664.1,544.5-650.2,544.5 M-650.2,542.5c-15,0-27.3,12.2-27.3,27.3s12.2,27.3,27.3,27.3s27.3-12.2,27.3-27.3
					S-635.2,542.5-650.2,542.5L-650.2,542.5z"/>
			</g>
			<path class="st11" d="M-634.2,577.7l-16-27.6l-16,27.6l-1.6,2.8l3.3,0l14.3,0l14.3,0l3.3,0L-634.2,577.7z M-650.2,577.7l-12.7,0
				l12.7-21.9l12.7,21.9L-650.2,577.7z"/>
		</g>
	</g>
</g>
</svg> -->
<svg width="224" height="113" viewBox="0 0 224 113" fill="none" xmlns="http://www.w3.org/2000/svg">
	<circle cx="28" cy="28" r="26" fill="#3A3A3A" stroke="#2C2C2C" stroke-width="2"/>
	<path d="M42.8 16L40.8 14L28.4 26.4L16 14L14 16L26.4 28.4L14 40.8L16 42.8L28.4 30.4L40.8 42.8L42.8 40.8L30.4 28.4L42.8 16Z" fill="#7CB2E8"/>
	<circle cx="84" cy="28" r="26" fill="#3A3A3A" stroke="#2C2C2C" stroke-width="2"/>
	<path d="M83.9 9C73.5 9 65 17.5 65 27.9C65 38.3 73.5 46.8 83.9 46.8C94.3 46.8 102.8 38.3 102.8 27.9C102.8 17.5 94.3 9 83.9 9ZM83.9 43.9C75 43.9 67.9 36.7 67.9 27.9C67.9 19 75.1 11.9 83.9 11.9C92.7 11.9 99.9 19.1 99.9 27.9C99.9 36.8 92.8 43.9 83.9 43.9Z" fill="#FF6666"/>
	<circle cx="140" cy="28" r="26" fill="#3A3A3A" stroke="#2C2C2C" stroke-width="2"/>
	<path d="M151.8 14H128.8H126V16.8V39.8V42.6H128.8H151.8H154.6V39.8V16.8V14H151.8ZM151.8 39.9H128.8V16.9H151.8V39.9Z" fill="#FF69F8"/>
	<circle cx="196" cy="28" r="26" fill="#3A3A3A" stroke="#2C2C2C" stroke-width="2"/>
	<path d="M211.6 36.6L195.6 9L179.6 36.6L178 39.4H181.3H195.6H209.9H213.2L211.6 36.6ZM195.6 36.6H182.9L195.6 14.7L208.3 36.6H195.6Z" fill="#40E2A0"/>
	<circle cx="28" cy="84" r="27" fill="#3ED8D2"/>
	<circle cx="28" cy="84" r="26" stroke="black" stroke-opacity="0.22" stroke-width="2"/>
	<path d="M42.8 72L40.8 70L28.4 82.4L16 70L14 72L26.4 84.4L14 96.8L16 98.8L28.4 86.4L40.8 98.8L42.8 96.8L30.4 84.4L42.8 72Z" fill="#3A3A3A"/>
	<circle cx="84" cy="84" r="27" fill="#3ED8D2"/>
	<circle cx="84" cy="84" r="26" stroke="black" stroke-opacity="0.22" stroke-width="2"/>
	<path d="M83.9 65C73.5 65 65 73.5 65 83.9C65 94.3 73.5 102.8 83.9 102.8C94.3 102.8 102.8 94.3 102.8 83.9C102.8 73.5 94.3 65 83.9 65ZM83.9 99.9C75 99.9 67.9 92.7 67.9 83.9C67.9 75 75.1 67.9 83.9 67.9C92.7 67.9 99.9 75.1 99.9 83.9C99.9 92.8 92.8 99.9 83.9 99.9Z" fill="#3A3A3A"/>
	<circle cx="140" cy="84" r="27" fill="#3ED8D2"/>
	<circle cx="140" cy="84" r="26" stroke="black" stroke-opacity="0.22" stroke-width="2"/>
	<path d="M151.8 70H128.8H126V72.8V95.8V98.6H128.8H151.8H154.6V95.8V72.8V70H151.8ZM151.8 95.9H128.8V72.9H151.8V95.9Z" fill="#3A3A3A"/>
	<circle cx="196" cy="84" r="27" fill="#3ED8D2"/>
	<circle cx="196" cy="84" r="26" stroke="black" stroke-opacity="0.22" stroke-width="2"/>
	<path d="M211.6 92.6L195.6 65L179.6 92.6L178 95.4H181.3H195.6H209.9H213.2L211.6 92.6ZM195.6 92.6H182.9L195.6 70.7L208.3 92.6H195.6Z" fill="#3A3A3A"/>
</svg>
	