<!-- Generator: Adobe Illustrator 19.0.1, SVG Export Plug-In . SVG Version: 6.00 Build 0)  -->
<!-- <?xml version="1.0" encoding="utf-8"?>
<svg version="1.1" id="Layer_1" xmlns="http://www.w3.org/2000/svg" xmlns:xlink="http://www.w3.org/1999/xlink" x="0px" y="0px"
	 width="286px" height="94px" viewBox="-816 494 286 94" style="enable-background:new -816 494 286 94;" xml:space="preserve">
<style type="text/css">
	.st0{fill:#C1272D;}
	.st1{fill:#CF2A32;}
	.st2{fill:#E02D39;}
	.st3{fill:#3ED8D2;}
	.st4{fill:#30D5CD;}
	.st5{fill:#1FD2C6;}
</style>
<g>
	<g>
		<g>
			<g>
				<path class="st0" d="M-769,586.5c-25.1,0-45.5-20.4-45.5-45.5s20.4-45.5,45.5-45.5s45.5,20.4,45.5,45.5S-743.9,586.5-769,586.5z
					"/>
				<g>
					<path class="st1" d="M-769,497c24.3,0,44,19.7,44,44s-19.7,44-44,44s-44-19.7-44-44S-793.3,497-769,497 M-769,494
						c-26,0-47,21-47,47s21,47,47,47s47-21,47-47S-743,494-769,494L-769,494z"/>
				</g>
			</g>
			<circle class="st2" cx="-769" cy="541" r="27.3"/>
		</g>
	</g>
	<g>
		<g>
			<path class="st3" d="M-673,586.5c-25.1,0-45.5-20.4-45.5-45.5s20.4-45.5,45.5-45.5s45.5,20.4,45.5,45.5S-647.9,586.5-673,586.5z"
				/>
			<g>
				<path class="st4" d="M-673,497c24.3,0,44,19.7,44,44s-19.7,44-44,44s-44-19.7-44-44S-697.3,497-673,497 M-673,494
					c-26,0-47,21-47,47s21,47,47,47s47-21,47-47S-647,494-673,494L-673,494z"/>
			</g>
		</g>
		<circle class="st5" cx="-673" cy="541" r="27.3"/>
		<g>
			<path d="M-690.9,527.5h4.6v22.4h13.4v4h-18V527.5z"/>
			<path d="M-664.1,538.8c2.8,0.1,5.7-0.9,5.7-4.1c0-2.2-1.7-3.7-4-3.7c-2.9,0-4.4,2.6-4.3,5.3h-4.2c0.2-5,3.4-8.8,8.6-8.8
				c4,0,8.2,2.3,8.2,6.9c0,2.6-1.1,4.7-3.7,5.5v0.1c3,0.6,4.7,3.1,4.7,6.5c0,4.9-4.3,7.9-9.2,7.9c-6,0-9-3.6-9.1-9h4.2
				c-0.1,3.1,1.6,5.5,4.9,5.5c2.8,0,5-1.7,5-4.6c0-4-3.4-4.5-6.8-4.4L-664.1,538.8L-664.1,538.8z"/>
		</g>
	</g>
	<g>
		<g>
			<path class="st3" d="M-577,586.5c-25.1,0-45.5-20.4-45.5-45.5s20.4-45.5,45.5-45.5s45.5,20.4,45.5,45.5S-551.9,586.5-577,586.5z"
				/>
			<g>
				<path class="st4" d="M-577,497c24.3,0,44,19.7,44,44s-19.7,44-44,44s-44-19.7-44-44S-601.3,497-577,497 M-577,494
					c-26,0-47,21-47,47s21,47,47,47s47-21,47-47S-551,494-577,494L-577,494z"/>
			</g>
		</g>
		<circle class="st5" cx="-577" cy="541" r="27.3"/>
		<g>
			<path d="M-597.3,527.5h12.6c5.8,0,8.7,2.7,8.7,7.1c0,5.1-3.5,6.4-4.4,6.7v0.1c1.6,0.2,3.9,1.4,3.9,5.6c0,3.1,0.4,5.9,1.4,7h-5
				c-0.7-1.1-0.7-2.6-0.7-3.9c0-4.8-1-7-5.3-7h-6.8V554h-4.6v-26.5H-597.3z M-592.7,539.6h7.6c3,0,4.5-1.4,4.5-4.2
				c0-3.4-2.2-4-4.6-4h-7.5V539.6z"/>
			<path d="M-565.7,538.8c2.8,0.1,5.7-0.9,5.7-4.1c0-2.2-1.7-3.7-4-3.7c-2.9,0-4.4,2.6-4.3,5.3h-4.2c0.2-5,3.4-8.8,8.6-8.8
				c4,0,8.2,2.3,8.2,6.9c0,2.6-1.1,4.7-3.7,5.5v0.1c3,0.6,4.7,3.1,4.7,6.5c0,4.9-4.3,7.9-9.2,7.9c-6,0-9-3.6-9.1-9h4.2
				c-0.1,3.1,1.6,5.5,4.9,5.5c2.8,0,5-1.7,5-4.6c0-4-3.4-4.5-6.8-4.4L-565.7,538.8L-565.7,538.8z"/>
		</g>
	</g>
</g>
</svg> -->
<svg width="286" height="94" viewBox="0 0 286 94" fill="none" xmlns="http://www.w3.org/2000/svg">
	<circle cx="47" cy="47" r="47" fill="#3A3A3A"/>
	<circle cx="47" cy="47" r="44" fill="url(#paint0_linear)"/>
	<circle cx="47" cy="47" r="27" fill="url(#paint1_linear)"/>
	<path d="M143 92.5C117.9 92.5 97.5 72.1 97.5 47C97.5 21.9 117.9 1.5 143 1.5C168.1 1.5 188.5 21.9 188.5 47C188.5 72.1 168.1 92.5 143 92.5Z" fill="#3ED8D2"/>
	<path d="M143 3C167.3 3 187 22.7 187 47C187 71.3 167.3 91 143 91C118.7 91 99 71.3 99 47C99 22.7 118.7 3 143 3ZM143 0C117 0 96 21 96 47C96 73 117 94 143 94C169 94 190 73 190 47C190 21 169 0 143 0Z" fill="#30D5CD"/>
	<path d="M143 74.3C158.077 74.3 170.3 62.0774 170.3 47C170.3 31.9226 158.077 19.7 143 19.7C127.923 19.7 115.7 31.9226 115.7 47C115.7 62.0774 127.923 74.3 143 74.3Z" fill="#1FD2C6"/>
	<path d="M239 92.5C213.9 92.5 193.5 72.1 193.5 47C193.5 21.9 213.9 1.5 239 1.5C264.1 1.5 284.5 21.9 284.5 47C284.5 72.1 264.1 92.5 239 92.5Z" fill="#3ED8D2"/>
	<path d="M239 3C263.3 3 283 22.7 283 47C283 71.3 263.3 91 239 91C214.7 91 195 71.3 195 47C195 22.7 214.7 3 239 3ZM239 0C213 0 192 21 192 47C192 73 213 94 239 94C265 94 286 73 286 47C286 21 265 0 239 0Z" fill="#30D5CD"/>
	<path d="M239 74.3C254.077 74.3 266.3 62.0774 266.3 47C266.3 31.9226 254.077 19.7 239 19.7C223.923 19.7 211.7 31.9226 211.7 47C211.7 62.0774 223.923 74.3 239 74.3Z" fill="#1FD2C6"/>
	<defs>
	<linearGradient id="paint0_linear" x1="47" y1="3" x2="47" y2="91" gradientUnits="userSpaceOnUse">
	<stop stop-color="#4B4A4A"/>
	<stop offset="1" stop-color="#2E2D2D"/>
	</linearGradient>
	<linearGradient id="paint1_linear" x1="47" y1="20" x2="47" y2="74" gradientUnits="userSpaceOnUse">
	<stop stop-color="#3A3A3A"/>
	<stop offset="1" stop-color="#545454"/>
	</linearGradient>
	</defs>
</svg>
	